<svg xmlns="http://www.w3.org/2000/svg" viewBox="0 0 526.51 81.89"><defs><style>.cls-1{fill:#fff;}</style></defs><g id="Layer_2" data-name="Layer 2"><g id="Layer_1-2" data-name="Layer 1"><path d="M326.78,9.22V44.74c0,7.64,4.37,11.85,12.32,11.85a13.57,13.57,0,0,0,4.11-.68V49.49a13,13,0,0,1-2.35.23c-4.47,0-6.46-1.94-6.46-6.27V27.22h8.88V20.41H334.4V9.22Z"/><path d="M356.09,56.18h7.62V38c0-6.54,3.42-10.13,9.65-10.13a16,16,0,0,1,2.08.16V20.23a10.43,10.43,0,0,0-1.74-.16,11,11,0,0,0-9.77,6l-.43.77V20.41h-7.41Z"/><path d="M401.12,19.67c-10.11,0-18,8.15-18,18.56,0,10.62,8.07,18.63,18.77,18.63,6.56,0,12.21-3.15,15.17-8.45l-5.46-3.61c-2.06,3.77-5.2,5.53-9.85,5.53-5.08,0-10.66-3.69-10.81-9.65v-.24h27.51a20.14,20.14,0,0,0,.1-2.28C418.53,26.93,411.7,19.67,401.12,19.67Zm9.67,15.12h-19.5l0-.26a9.6,9.6,0,0,1,9.79-8.4c5.42,0,9.39,3.46,9.66,8.42Z"/><path d="M442.57,35.13c-5.51,0-14.83,2.28-14.83,10.83v.41c0,6,5,10.42,12,10.42,2.16,0,7.51-.53,10.46-5.45l.42-.7v5.54h7.48V33.34a15.19,15.19,0,0,0-1.2-6.41c-2.72-6-8.77-7.26-13.36-7.26-8.92,0-13.13,4.79-15.1,8.9l5.78,3.31a9.79,9.79,0,0,1,9.12-5.68c5.05,0,7.35,2.93,7.35,5.65,0,2.12-1.29,3.28-3.62,3.28ZM441.35,50.8c-3.58,0-6-2.08-6-5.18,0-3.62,4.22-5.24,7.21-5.24h8v1.38C450.6,47.25,447,50.8,441.35,50.8Z"/><path d="M518.89,56.18h7.62V34c0-9.17-4.71-14.42-12.94-14.42-5.08,0-8.69,1.7-12.45,5.89l-.21.24-.15-.28c-2.16-3.88-5.86-5.85-11-5.85a13.23,13.23,0,0,0-10.6,5.6l-.41.55V20.41h-7.42V56.18H479V36.26c0-5.74,3.21-9.45,8.17-9.45s8,3.37,8,9.25V56.18h7.55v-20c0-5.78,3.15-9.38,8.23-9.38s8,3.26,8,9.18Z"/><path d="M212.57,19.58h-.34a18,18,0,0,0-12.69,5.29,18.25,18.25,0,0,0-5.48,12.93l0,32.24h7.61V37.73a10.76,10.76,0,1,1,10.76,11h-4.78v7.6h4.78A18.42,18.42,0,0,0,230.81,38.1V38A18.41,18.41,0,0,0,212.57,19.58Z"/><path d="M258.68,19.67c-10.11,0-18,8.15-18,18.56,0,10.62,8.07,18.63,18.77,18.63,6.56,0,12.22-3.15,15.17-8.45l-5.45-3.61c-2.07,3.77-5.2,5.53-9.85,5.53-5.09,0-10.67-3.69-10.81-9.65v-.24H276a19.4,19.4,0,0,0,.11-2.28C276.09,26.93,269.25,19.67,258.68,19.67Zm9.66,15.12H248.85l0-.26a9.6,9.6,0,0,1,9.79-8.4c5.42,0,9.39,3.46,9.65,8.42Z"/><path d="M285.93,48c2.8,5.9,7.61,8.77,14.7,8.77,7.94,0,13.48-4.53,13.48-11a9.46,9.46,0,0,0-3.12-7c-2.12-1.94-5.15-3.32-9.25-4.22s-6.9-2-6.9-4.83c0-2.21,2.8-3.75,5.32-3.75a8.12,8.12,0,0,1,7.69,4.79l5.85-3.3c-2.58-5.34-6.8-7.82-13.27-7.82s-12.94,4.07-12.94,10.89A8.85,8.85,0,0,0,290,37c2.43,2.51,6.18,3.71,8.9,4.27,5.22,1.12,7.64,2.7,7.64,5,0,2.75-3.05,4.23-5.92,4.23-4,0-6.75-1.82-8.78-5.74Z"/><path d="M156.24,69.94h8.15l22.8-49.53h-8.25L168.36,44.47,156.94,20.41h-8.71l16,31.93,0,.09Z"/><path d="M124.3,19.58H124a18,18,0,0,0-12.69,5.29,18.2,18.2,0,0,0-5.47,12.93V70h7.61V37.73a10.76,10.76,0,1,1,10.76,11h-4.78v7.6h4.78A18.42,18.42,0,0,0,142.53,38.1V38A18.41,18.41,0,0,0,124.3,19.58Z"/><path d="M41,0A40.93,40.93,0,0,0,5.89,19.78H41.77A21.52,21.52,0,0,1,57,26.23a21.24,21.24,0,0,1,6.23,15v.4A21.71,21.71,0,0,1,41.6,63.08h-.17A21.71,21.71,0,0,1,19.94,41.44V38.69h9.71v2.75A12,12,0,0,0,41.58,53.37a11.93,11.93,0,0,0,.26-23.86H1.63A40.94,40.94,0,1,0,41,0Z"/><path class="cls-1" d="M53.51,41.44a11.93,11.93,0,0,1-23.86,0V38.69H19.94v2.75A21.71,21.71,0,0,0,41.43,63.08h.17A21.71,21.71,0,0,0,63.25,41.59v-.4a21.24,21.24,0,0,0-6.23-15,21.52,21.52,0,0,0-15.25-6.46H5.89a40.71,40.71,0,0,0-4.26,9.73H41.84A11.89,11.89,0,0,1,53.51,41.44Z"/></g></g></svg>